<svg xmlns="http://www.w3.org/2000/svg" xmlns:xlink="http://www.w3.org/1999/xlink" width="1080" zoomAndPan="magnify" viewBox="0 0 810 809.999993" height="1080" preserveAspectRatio="xMidYMid meet" version="1.0"><defs><g/></defs><rect x="-81" width="972" fill="#ffffff" y="-80.999999" height="971.999992" fill-opacity="1"/><rect x="-81" width="972" fill="#ffffff" y="-80.999999" height="971.999992" fill-opacity="1"/><g fill="#286108" fill-opacity="0.4784"><g transform="translate(247.729503, 420.769192)"><g><path d="M 51.375 -7.203125 C 45.71875 -2.398438 39.128906 0 31.609375 0 C 23.316406 -0.0703125 16.269531 -3.054688 10.46875 -8.953125 C 4.65625 -14.835938 1.785156 -21.890625 1.859375 -30.109375 C 1.929688 -38.398438 4.914062 -45.453125 10.8125 -51.265625 C 16.695312 -57.078125 23.75 -59.941406 31.96875 -59.859375 C 39.40625 -59.785156 45.910156 -57.304688 51.484375 -52.421875 L 40.6875 -41.734375 C 38.050781 -43.671875 35.101562 -44.640625 31.84375 -44.640625 C 27.8125 -44.640625 24.328125 -43.242188 21.390625 -40.453125 C 18.523438 -37.585938 17.09375 -34.097656 17.09375 -29.984375 C 16.9375 -25.953125 18.328125 -22.46875 21.265625 -19.53125 C 24.054688 -16.738281 27.546875 -15.265625 31.734375 -15.109375 C 34.984375 -15.109375 37.925781 -16.078125 40.5625 -18.015625 Z M 51.375 -7.203125 "/></g></g></g><g fill="#286108" fill-opacity="0.4784"><g transform="translate(300.958462, 420.769192)"><g><path d="M 46.5 -60.09375 L 62.765625 -60.09375 L 62.765625 0 L 46.5 0 L 46.5 -6.734375 C 43.164062 -2.398438 38.128906 -0.234375 31.390625 -0.234375 C 23.171875 -0.148438 16.117188 -3.015625 10.234375 -8.828125 C 4.335938 -14.640625 1.351562 -21.691406 1.28125 -29.984375 C 1.195312 -38.203125 4.0625 -45.253906 9.875 -51.140625 C 15.6875 -57.035156 22.738281 -60.019531 31.03125 -60.09375 C 37.851562 -60.09375 43.007812 -57.882812 46.5 -53.46875 Z M 41.609375 -19.765625 C 44.472656 -22.628906 45.90625 -26.113281 45.90625 -30.21875 C 45.90625 -34.40625 44.4375 -37.894531 41.5 -40.6875 C 38.550781 -43.625 35.101562 -45.015625 31.15625 -44.859375 C 27.039062 -44.859375 23.550781 -43.425781 20.6875 -40.5625 C 17.820312 -37.695312 16.390625 -34.210938 16.390625 -30.109375 C 16.390625 -26.078125 17.863281 -22.585938 20.8125 -19.640625 C 23.675781 -16.773438 27.160156 -15.34375 31.265625 -15.34375 C 35.453125 -15.5 38.898438 -16.972656 41.609375 -19.765625 Z M 41.609375 -19.765625 "/></g></g></g><g fill="#286108" fill-opacity="0.4784"><g transform="translate(367.204094, 420.769192)"><g><path d="M 33.25 -59.625 C 41.769531 -60.320312 48.816406 -58.113281 54.390625 -53 C 60.359375 -47.5 63.34375 -39.789062 63.34375 -29.875 L 63.34375 0 L 48.234375 0 L 48.234375 -29.53125 L 48.125 -29.53125 L 48.125 -29.75 C 48.125 -33.863281 46.691406 -37.351562 43.828125 -40.21875 C 40.953125 -43.082031 37.460938 -44.515625 33.359375 -44.515625 C 29.171875 -44.359375 25.679688 -42.882812 22.890625 -40.09375 C 19.953125 -37.15625 18.5625 -33.671875 18.71875 -29.640625 L 18.71875 -29.53125 L 18.59375 -29.53125 L 18.59375 0 L 2.328125 0 L 2.328125 -60.09375 L 18.59375 -60.09375 L 18.59375 -52.3125 C 22.238281 -56.644531 27.125 -59.082031 33.25 -59.625 Z M 33.25 -59.625 "/></g></g></g><g fill="#286108" fill-opacity="1"><g transform="translate(251.715751, 416.342023)"><g><path d="M 51.375 -7.203125 C 45.71875 -2.398438 39.128906 0 31.609375 0 C 23.316406 -0.0703125 16.269531 -3.054688 10.46875 -8.953125 C 4.65625 -14.835938 1.785156 -21.890625 1.859375 -30.109375 C 1.929688 -38.398438 4.914062 -45.453125 10.8125 -51.265625 C 16.695312 -57.078125 23.75 -59.941406 31.96875 -59.859375 C 39.40625 -59.785156 45.910156 -57.304688 51.484375 -52.421875 L 40.6875 -41.734375 C 38.050781 -43.671875 35.101562 -44.640625 31.84375 -44.640625 C 27.8125 -44.640625 24.328125 -43.242188 21.390625 -40.453125 C 18.523438 -37.585938 17.09375 -34.097656 17.09375 -29.984375 C 16.9375 -25.953125 18.328125 -22.46875 21.265625 -19.53125 C 24.054688 -16.738281 27.546875 -15.265625 31.734375 -15.109375 C 34.984375 -15.109375 37.925781 -16.078125 40.5625 -18.015625 Z M 51.375 -7.203125 "/></g></g></g><g fill="#286108" fill-opacity="1"><g transform="translate(304.944711, 416.342023)"><g><path d="M 46.5 -60.09375 L 62.765625 -60.09375 L 62.765625 0 L 46.5 0 L 46.5 -6.734375 C 43.164062 -2.398438 38.128906 -0.234375 31.390625 -0.234375 C 23.171875 -0.148438 16.117188 -3.015625 10.234375 -8.828125 C 4.335938 -14.640625 1.351562 -21.691406 1.28125 -29.984375 C 1.195312 -38.203125 4.0625 -45.253906 9.875 -51.140625 C 15.6875 -57.035156 22.738281 -60.019531 31.03125 -60.09375 C 37.851562 -60.09375 43.007812 -57.882812 46.5 -53.46875 Z M 41.609375 -19.765625 C 44.472656 -22.628906 45.90625 -26.113281 45.90625 -30.21875 C 45.90625 -34.40625 44.4375 -37.894531 41.5 -40.6875 C 38.550781 -43.625 35.101562 -45.015625 31.15625 -44.859375 C 27.039062 -44.859375 23.550781 -43.425781 20.6875 -40.5625 C 17.820312 -37.695312 16.390625 -34.210938 16.390625 -30.109375 C 16.390625 -26.078125 17.863281 -22.585938 20.8125 -19.640625 C 23.675781 -16.773438 27.160156 -15.34375 31.265625 -15.34375 C 35.453125 -15.5 38.898438 -16.972656 41.609375 -19.765625 Z M 41.609375 -19.765625 "/></g></g></g><g fill="#286108" fill-opacity="1"><g transform="translate(371.190343, 416.342023)"><g><path d="M 33.25 -59.625 C 41.769531 -60.320312 48.816406 -58.113281 54.390625 -53 C 60.359375 -47.5 63.34375 -39.789062 63.34375 -29.875 L 63.34375 0 L 48.234375 0 L 48.234375 -29.53125 L 48.125 -29.53125 L 48.125 -29.75 C 48.125 -33.863281 46.691406 -37.351562 43.828125 -40.21875 C 40.953125 -43.082031 37.460938 -44.515625 33.359375 -44.515625 C 29.171875 -44.359375 25.679688 -42.882812 22.890625 -40.09375 C 19.953125 -37.15625 18.5625 -33.671875 18.71875 -29.640625 L 18.71875 -29.53125 L 18.59375 -29.53125 L 18.59375 0 L 2.328125 0 L 2.328125 -60.09375 L 18.59375 -60.09375 L 18.59375 -52.3125 C 22.238281 -56.644531 27.125 -59.082031 33.25 -59.625 Z M 33.25 -59.625 "/></g></g></g><g fill="#286108" fill-opacity="0.4784"><g transform="translate(438.428237, 436.641273)"><g><path d="M 40.703125 -50.53125 L 55.65625 -50.53125 L 55.65625 0 L 40.703125 0 L 40.703125 -26.59375 L 3.203125 -26.59375 L 27.5625 -74.453125 L 46.6875 -74.453125 L 29.171875 -41.5625 L 40.703125 -41.5625 Z M 40.703125 -50.53125 "/></g></g></g><g fill="#286108" fill-opacity="1"><g transform="translate(442.092197, 432.572025)"><g><path d="M 40.703125 -50.53125 L 55.65625 -50.53125 L 55.65625 0 L 40.703125 0 L 40.703125 -26.59375 L 3.203125 -26.59375 L 27.5625 -74.453125 L 46.6875 -74.453125 L 29.171875 -41.5625 L 40.703125 -41.5625 Z M 40.703125 -50.53125 "/></g></g></g><g fill="#286108" fill-opacity="0.4784"><g transform="translate(244.720287, 508.278777)"><g><path d="M 86.828125 -60.671875 L 54.28125 0 L 54.171875 -0.109375 L 43.703125 -19.640625 L 33.125 0 L 33.125 -0.109375 L 0.578125 -60.671875 L 17.3125 -60.671875 L 33.125 -30.34375 L 35.453125 -34.875 L 21.625 -60.671875 L 38.359375 -60.671875 L 54.28125 -30.34375 L 70.09375 -60.671875 Z M 86.828125 -60.671875 "/></g></g></g><g fill="#286108" fill-opacity="0.4784"><g transform="translate(325.95799, 508.278777)"><g><path d="M 46.5 -60.09375 L 62.765625 -60.09375 L 62.765625 0 L 46.5 0 L 46.5 -6.734375 C 43.164062 -2.398438 38.128906 -0.234375 31.390625 -0.234375 C 23.171875 -0.148438 16.117188 -3.015625 10.234375 -8.828125 C 4.335938 -14.640625 1.351562 -21.691406 1.28125 -29.984375 C 1.195312 -38.203125 4.0625 -45.253906 9.875 -51.140625 C 15.6875 -57.035156 22.738281 -60.019531 31.03125 -60.09375 C 37.851562 -60.09375 43.007812 -57.882812 46.5 -53.46875 Z M 41.609375 -19.765625 C 44.472656 -22.628906 45.90625 -26.113281 45.90625 -30.21875 C 45.90625 -34.40625 44.4375 -37.894531 41.5 -40.6875 C 38.550781 -43.625 35.101562 -45.015625 31.15625 -44.859375 C 27.039062 -44.859375 23.550781 -43.425781 20.6875 -40.5625 C 17.820312 -37.695312 16.390625 -34.210938 16.390625 -30.109375 C 16.390625 -26.078125 17.863281 -22.585938 20.8125 -19.640625 C 23.675781 -16.773438 27.160156 -15.34375 31.265625 -15.34375 C 35.453125 -15.5 38.898438 -16.972656 41.609375 -19.765625 Z M 41.609375 -19.765625 "/></g></g></g><g fill="#286108" fill-opacity="0.4784"><g transform="translate(392.203622, 508.278777)"><g><path d="M 51.375 -7.203125 C 45.71875 -2.398438 39.128906 0 31.609375 0 C 23.316406 -0.0703125 16.269531 -3.054688 10.46875 -8.953125 C 4.65625 -14.835938 1.785156 -21.890625 1.859375 -30.109375 C 1.929688 -38.398438 4.914062 -45.453125 10.8125 -51.265625 C 16.695312 -57.078125 23.75 -59.941406 31.96875 -59.859375 C 39.40625 -59.785156 45.910156 -57.304688 51.484375 -52.421875 L 40.6875 -41.734375 C 38.050781 -43.671875 35.101562 -44.640625 31.84375 -44.640625 C 27.8125 -44.640625 24.328125 -43.242188 21.390625 -40.453125 C 18.523438 -37.585938 17.09375 -34.097656 17.09375 -29.984375 C 16.9375 -25.953125 18.328125 -22.46875 21.265625 -19.53125 C 24.054688 -16.738281 27.546875 -15.265625 31.734375 -15.109375 C 34.984375 -15.109375 37.925781 -16.078125 40.5625 -18.015625 Z M 51.375 -7.203125 "/></g></g></g><g fill="#286108" fill-opacity="0.4784"><g transform="translate(445.432582, 508.278777)"><g><path d="M 64.515625 0 L 49.40625 0 L 49.40625 -29.53125 L 49.28125 -29.53125 L 49.28125 -29.875 C 49.28125 -33.90625 47.847656 -37.351562 44.984375 -40.21875 C 42.117188 -43.082031 38.628906 -44.515625 34.515625 -44.515625 C 30.492188 -44.515625 27.007812 -43.039062 24.0625 -40.09375 C 21.113281 -37.15625 19.71875 -33.671875 19.875 -29.640625 L 19.875 -29.53125 L 19.765625 -29.53125 L 19.765625 0 L 3.484375 0 L 3.484375 -75.546875 L 19.765625 -75.546875 L 19.765625 -52.3125 C 23.398438 -56.644531 28.28125 -59.082031 34.40625 -59.625 C 42.925781 -60.320312 49.976562 -58.113281 55.5625 -53 C 61.53125 -47.5 64.515625 -39.789062 64.515625 -29.875 Z M 64.515625 0 "/></g></g></g><g fill="#286108" fill-opacity="0.4784"><g transform="translate(513.42154, 508.278777)"><g><path d="M 64.515625 0 L 49.40625 0 L 49.40625 -29.53125 L 49.28125 -29.53125 L 49.28125 -29.875 C 49.28125 -33.90625 47.847656 -37.351562 44.984375 -40.21875 C 42.117188 -43.082031 38.628906 -44.515625 34.515625 -44.515625 C 30.492188 -44.515625 27.007812 -43.039062 24.0625 -40.09375 C 21.113281 -37.15625 19.71875 -33.671875 19.875 -29.640625 L 19.875 -29.53125 L 19.765625 -29.53125 L 19.765625 0 L 3.484375 0 L 3.484375 -75.546875 L 19.765625 -75.546875 L 19.765625 -52.3125 C 23.398438 -56.644531 28.28125 -59.082031 34.40625 -59.625 C 42.925781 -60.320312 49.976562 -58.113281 55.5625 -53 C 61.53125 -47.5 64.515625 -39.789062 64.515625 -29.875 Z M 64.515625 0 "/></g></g></g><g fill="#286108" fill-opacity="0.4784"><g transform="translate(577.342518, 508.278777)"><g><path d="M 46.609375 -59.859375 L 46.609375 -43.59375 L 33.25 -43.59375 L 33.25 0 L 16.96875 0 L 16.96875 -43.59375 L 3.484375 -43.59375 L 3.484375 -59.859375 L 16.96875 -59.859375 L 16.96875 -80.78125 L 33.25 -80.78125 L 33.25 -59.859375 Z M 46.609375 -59.859375 "/></g></g></g><g fill="#286108" fill-opacity="0.4784"><g transform="translate(624.062898, 508.278777)"><g><path d="M 46.5 -60.09375 L 62.765625 -60.09375 L 62.765625 0 L 46.5 0 L 46.5 -6.734375 C 43.164062 -2.398438 38.128906 -0.234375 31.390625 -0.234375 C 23.171875 -0.148438 16.117188 -3.015625 10.234375 -8.828125 C 4.335938 -14.640625 1.351562 -21.691406 1.28125 -29.984375 C 1.195312 -38.203125 4.0625 -45.253906 9.875 -51.140625 C 15.6875 -57.035156 22.738281 -60.019531 31.03125 -60.09375 C 37.851562 -60.09375 43.007812 -57.882812 46.5 -53.46875 Z M 41.609375 -19.765625 C 44.472656 -22.628906 45.90625 -26.113281 45.90625 -30.21875 C 45.90625 -34.40625 44.4375 -37.894531 41.5 -40.6875 C 38.550781 -43.625 35.101562 -45.015625 31.15625 -44.859375 C 27.039062 -44.859375 23.550781 -43.425781 20.6875 -40.5625 C 17.820312 -37.695312 16.390625 -34.210938 16.390625 -30.109375 C 16.390625 -26.078125 17.863281 -22.585938 20.8125 -19.640625 C 23.675781 -16.773438 27.160156 -15.34375 31.265625 -15.34375 C 35.453125 -15.5 38.898438 -16.972656 41.609375 -19.765625 Z M 41.609375 -19.765625 "/></g></g></g><g fill="#286108" fill-opacity="1"><g transform="translate(248.706538, 503.851608)"><g><path d="M 86.828125 -60.671875 L 54.28125 0 L 54.171875 -0.109375 L 43.703125 -19.640625 L 33.125 0 L 33.125 -0.109375 L 0.578125 -60.671875 L 17.3125 -60.671875 L 33.125 -30.34375 L 35.453125 -34.875 L 21.625 -60.671875 L 38.359375 -60.671875 L 54.28125 -30.34375 L 70.09375 -60.671875 Z M 86.828125 -60.671875 "/></g></g></g><g fill="#286108" fill-opacity="1"><g transform="translate(329.944241, 503.851608)"><g><path d="M 46.5 -60.09375 L 62.765625 -60.09375 L 62.765625 0 L 46.5 0 L 46.5 -6.734375 C 43.164062 -2.398438 38.128906 -0.234375 31.390625 -0.234375 C 23.171875 -0.148438 16.117188 -3.015625 10.234375 -8.828125 C 4.335938 -14.640625 1.351562 -21.691406 1.28125 -29.984375 C 1.195312 -38.203125 4.0625 -45.253906 9.875 -51.140625 C 15.6875 -57.035156 22.738281 -60.019531 31.03125 -60.09375 C 37.851562 -60.09375 43.007812 -57.882812 46.5 -53.46875 Z M 41.609375 -19.765625 C 44.472656 -22.628906 45.90625 -26.113281 45.90625 -30.21875 C 45.90625 -34.40625 44.4375 -37.894531 41.5 -40.6875 C 38.550781 -43.625 35.101562 -45.015625 31.15625 -44.859375 C 27.039062 -44.859375 23.550781 -43.425781 20.6875 -40.5625 C 17.820312 -37.695312 16.390625 -34.210938 16.390625 -30.109375 C 16.390625 -26.078125 17.863281 -22.585938 20.8125 -19.640625 C 23.675781 -16.773438 27.160156 -15.34375 31.265625 -15.34375 C 35.453125 -15.5 38.898438 -16.972656 41.609375 -19.765625 Z M 41.609375 -19.765625 "/></g></g></g><g fill="#286108" fill-opacity="1"><g transform="translate(396.189873, 503.851608)"><g><path d="M 51.375 -7.203125 C 45.71875 -2.398438 39.128906 0 31.609375 0 C 23.316406 -0.0703125 16.269531 -3.054688 10.46875 -8.953125 C 4.65625 -14.835938 1.785156 -21.890625 1.859375 -30.109375 C 1.929688 -38.398438 4.914062 -45.453125 10.8125 -51.265625 C 16.695312 -57.078125 23.75 -59.941406 31.96875 -59.859375 C 39.40625 -59.785156 45.910156 -57.304688 51.484375 -52.421875 L 40.6875 -41.734375 C 38.050781 -43.671875 35.101562 -44.640625 31.84375 -44.640625 C 27.8125 -44.640625 24.328125 -43.242188 21.390625 -40.453125 C 18.523438 -37.585938 17.09375 -34.097656 17.09375 -29.984375 C 16.9375 -25.953125 18.328125 -22.46875 21.265625 -19.53125 C 24.054688 -16.738281 27.546875 -15.265625 31.734375 -15.109375 C 34.984375 -15.109375 37.925781 -16.078125 40.5625 -18.015625 Z M 51.375 -7.203125 "/></g></g></g><g fill="#286108" fill-opacity="1"><g transform="translate(449.418833, 503.851608)"><g><path d="M 64.515625 0 L 49.40625 0 L 49.40625 -29.53125 L 49.28125 -29.53125 L 49.28125 -29.875 C 49.28125 -33.90625 47.847656 -37.351562 44.984375 -40.21875 C 42.117188 -43.082031 38.628906 -44.515625 34.515625 -44.515625 C 30.492188 -44.515625 27.007812 -43.039062 24.0625 -40.09375 C 21.113281 -37.15625 19.71875 -33.671875 19.875 -29.640625 L 19.875 -29.53125 L 19.765625 -29.53125 L 19.765625 0 L 3.484375 0 L 3.484375 -75.546875 L 19.765625 -75.546875 L 19.765625 -52.3125 C 23.398438 -56.644531 28.28125 -59.082031 34.40625 -59.625 C 42.925781 -60.320312 49.976562 -58.113281 55.5625 -53 C 61.53125 -47.5 64.515625 -39.789062 64.515625 -29.875 Z M 64.515625 0 "/></g></g></g><g fill="#286108" fill-opacity="1"><g transform="translate(517.407791, 503.851608)"><g><path d="M 64.515625 0 L 49.40625 0 L 49.40625 -29.53125 L 49.28125 -29.53125 L 49.28125 -29.875 C 49.28125 -33.90625 47.847656 -37.351562 44.984375 -40.21875 C 42.117188 -43.082031 38.628906 -44.515625 34.515625 -44.515625 C 30.492188 -44.515625 27.007812 -43.039062 24.0625 -40.09375 C 21.113281 -37.15625 19.71875 -33.671875 19.875 -29.640625 L 19.875 -29.53125 L 19.765625 -29.53125 L 19.765625 0 L 3.484375 0 L 3.484375 -75.546875 L 19.765625 -75.546875 L 19.765625 -52.3125 C 23.398438 -56.644531 28.28125 -59.082031 34.40625 -59.625 C 42.925781 -60.320312 49.976562 -58.113281 55.5625 -53 C 61.53125 -47.5 64.515625 -39.789062 64.515625 -29.875 Z M 64.515625 0 "/></g></g></g><g fill="#286108" fill-opacity="1"><g transform="translate(581.328769, 503.851608)"><g><path d="M 46.609375 -59.859375 L 46.609375 -43.59375 L 33.25 -43.59375 L 33.25 0 L 16.96875 0 L 16.96875 -43.59375 L 3.484375 -43.59375 L 3.484375 -59.859375 L 16.96875 -59.859375 L 16.96875 -80.78125 L 33.25 -80.78125 L 33.25 -59.859375 Z M 46.609375 -59.859375 "/></g></g></g><g fill="#286108" fill-opacity="1"><g transform="translate(628.049149, 503.851608)"><g><path d="M 46.5 -60.09375 L 62.765625 -60.09375 L 62.765625 0 L 46.5 0 L 46.5 -6.734375 C 43.164062 -2.398438 38.128906 -0.234375 31.390625 -0.234375 C 23.171875 -0.148438 16.117188 -3.015625 10.234375 -8.828125 C 4.335938 -14.640625 1.351562 -21.691406 1.28125 -29.984375 C 1.195312 -38.203125 4.0625 -45.253906 9.875 -51.140625 C 15.6875 -57.035156 22.738281 -60.019531 31.03125 -60.09375 C 37.851562 -60.09375 43.007812 -57.882812 46.5 -53.46875 Z M 41.609375 -19.765625 C 44.472656 -22.628906 45.90625 -26.113281 45.90625 -30.21875 C 45.90625 -34.40625 44.4375 -37.894531 41.5 -40.6875 C 38.550781 -43.625 35.101562 -45.015625 31.15625 -44.859375 C 27.039062 -44.859375 23.550781 -43.425781 20.6875 -40.5625 C 17.820312 -37.695312 16.390625 -34.210938 16.390625 -30.109375 C 16.390625 -26.078125 17.863281 -22.585938 20.8125 -19.640625 C 23.675781 -16.773438 27.160156 -15.34375 31.265625 -15.34375 C 35.453125 -15.5 38.898438 -16.972656 41.609375 -19.765625 Z M 41.609375 -19.765625 "/></g></g></g><g fill="#286108" fill-opacity="0.4784"><g transform="translate(91.515146, 513.734025)"><g><path d="M 76.5 0.265625 C 65.082031 0.265625 55.054688 -1.378906 46.421875 -4.671875 C 39.503906 -7.429688 32.414062 -12.007812 25.15625 -18.40625 C 16.851562 -26.007812 11.578125 -35.429688 9.328125 -46.671875 C 8.460938 -50.304688 8.03125 -53.9375 8.03125 -57.5625 C 7.863281 -58.769531 7.863281 -59.976562 8.03125 -61.1875 L 8.03125 -63.015625 L 43.5625 -62.484375 L 43.5625 -62.75 C 43.5625 -56.351562 44.941406 -51.082031 47.703125 -46.9375 C 52.890625 -39.15625 62.488281 -35.265625 76.5 -35.265625 C 98.96875 -35.265625 110.203125 -40.535156 110.203125 -51.078125 C 110.203125 -61.273438 98.617188 -67.671875 75.453125 -70.265625 C 62.140625 -71.828125 50.734375 -74.59375 41.234375 -78.5625 C 32.410156 -82.195312 25.234375 -87.039062 19.703125 -93.09375 C 11.921875 -101.726562 8.03125 -111.753906 8.03125 -123.171875 C 8.03125 -130.253906 9.328125 -136.90625 11.921875 -143.125 C 13.828125 -147.800781 16.421875 -152.039062 19.703125 -155.84375 C 31.804688 -169.5 50.992188 -176.328125 77.265625 -176.328125 C 92.992188 -176.328125 106.304688 -173.210938 117.203125 -166.984375 C 125.503906 -162.316406 132.242188 -156.09375 137.421875 -148.3125 C 141.222656 -142.4375 143.90625 -135.695312 145.46875 -128.09375 C 145.988281 -125.5 146.332031 -122.90625 146.5 -120.3125 C 146.675781 -119.445312 146.765625 -118.582031 146.765625 -117.71875 L 146.765625 -116.171875 L 111.234375 -116.171875 L 111.234375 -115.90625 C 111.410156 -121.09375 110.113281 -125.5 107.34375 -129.125 C 101.8125 -136.90625 91.785156 -140.796875 77.265625 -140.796875 C 68.453125 -140.796875 61.191406 -139.671875 55.484375 -137.421875 C 48.398438 -134.660156 44.859375 -130.6875 44.859375 -125.5 C 44.859375 -114.78125 56.351562 -108.125 79.34375 -105.53125 C 105.269531 -102.59375 123.941406 -94.554688 135.359375 -81.421875 C 142.960938 -72.429688 146.765625 -62.316406 146.765625 -51.078125 L 146.765625 -48.75 C 146.765625 -47.707031 146.675781 -46.671875 146.5 -45.640625 C 146.332031 -42.867188 145.988281 -40.273438 145.46875 -37.859375 C 143.738281 -30.941406 140.453125 -24.804688 135.609375 -19.453125 C 129.910156 -13.054688 122.21875 -8.128906 112.53125 -4.671875 C 102.851562 -1.378906 90.84375 0.265625 76.5 0.265625 Z M 76.5 0.265625 "/></g></g></g><g fill="#286108" fill-opacity="1"><g transform="translate(100.408372, 503.857096)"><g><path d="M 76.5 0.265625 C 65.082031 0.265625 55.054688 -1.378906 46.421875 -4.671875 C 39.503906 -7.429688 32.414062 -12.007812 25.15625 -18.40625 C 16.851562 -26.007812 11.578125 -35.429688 9.328125 -46.671875 C 8.460938 -50.304688 8.03125 -53.9375 8.03125 -57.5625 C 7.863281 -58.769531 7.863281 -59.976562 8.03125 -61.1875 L 8.03125 -63.015625 L 43.5625 -62.484375 L 43.5625 -62.75 C 43.5625 -56.351562 44.941406 -51.082031 47.703125 -46.9375 C 52.890625 -39.15625 62.488281 -35.265625 76.5 -35.265625 C 98.96875 -35.265625 110.203125 -40.535156 110.203125 -51.078125 C 110.203125 -61.273438 98.617188 -67.671875 75.453125 -70.265625 C 62.140625 -71.828125 50.734375 -74.59375 41.234375 -78.5625 C 32.410156 -82.195312 25.234375 -87.039062 19.703125 -93.09375 C 11.921875 -101.726562 8.03125 -111.753906 8.03125 -123.171875 C 8.03125 -130.253906 9.328125 -136.90625 11.921875 -143.125 C 13.828125 -147.800781 16.421875 -152.039062 19.703125 -155.84375 C 31.804688 -169.5 50.992188 -176.328125 77.265625 -176.328125 C 92.992188 -176.328125 106.304688 -173.210938 117.203125 -166.984375 C 125.503906 -162.316406 132.242188 -156.09375 137.421875 -148.3125 C 141.222656 -142.4375 143.90625 -135.695312 145.46875 -128.09375 C 145.988281 -125.5 146.332031 -122.90625 146.5 -120.3125 C 146.675781 -119.445312 146.765625 -118.582031 146.765625 -117.71875 L 146.765625 -116.171875 L 111.234375 -116.171875 L 111.234375 -115.90625 C 111.410156 -121.09375 110.113281 -125.5 107.34375 -129.125 C 101.8125 -136.90625 91.785156 -140.796875 77.265625 -140.796875 C 68.453125 -140.796875 61.191406 -139.671875 55.484375 -137.421875 C 48.398438 -134.660156 44.859375 -130.6875 44.859375 -125.5 C 44.859375 -114.78125 56.351562 -108.125 79.34375 -105.53125 C 105.269531 -102.59375 123.941406 -94.554688 135.359375 -81.421875 C 142.960938 -72.429688 146.765625 -62.316406 146.765625 -51.078125 L 146.765625 -48.75 C 146.765625 -47.707031 146.675781 -46.671875 146.5 -45.640625 C 146.332031 -42.867188 145.988281 -40.273438 145.46875 -37.859375 C 143.738281 -30.941406 140.453125 -24.804688 135.609375 -19.453125 C 129.910156 -13.054688 122.21875 -8.128906 112.53125 -4.671875 C 102.851562 -1.378906 90.84375 0.265625 76.5 0.265625 Z M 76.5 0.265625 "/></g></g></g></svg>